<?xml version="1.0" encoding="UTF-8"?>
<svg width="64px" height="64px" viewBox="0 0 64 64" version="1.1" xmlns="http://www.w3.org/2000/svg" xmlns:xlink="http://www.w3.org/1999/xlink">
    <!-- Generator: Sketch 56.3 (81716) - https://sketch.com -->
    <title>apk</title>
    <desc>Created with Sketch.</desc>
    <g id="apk" stroke="none" stroke-width="1" fill="none" fill-rule="evenodd">
        <g id="Group" transform="translate(4.000000, 0.000000)">
            <g>
                <path d="M7.9205298,3.57382781 L7.9205298,60.3115232 C7.9205298,62.2700927 9.50845033,63.8571656 11.4661722,63.8571656 L52.2475232,63.8571656 C54.2060927,63.8571656 55.7931656,62.2698808 55.7931656,60.3115232 L55.7931656,16.4492715 L38.6998675,0.0273377483 L11.4661722,0.0273377483 C9.50845033,0.0273377483 7.9205298,1.6154702 7.9205298,3.57382781 Z M37.6762177,2.57038411 L53.2501192,17.5325979 L53.2501192,60.3115232 C53.2501192,60.8654918 52.8015103,61.3141192 52.2475232,61.3141192 L11.4661722,61.3141192 C10.9125493,61.3141192 10.4635762,60.8652202 10.4635762,60.3115232 L10.4635762,3.57382781 C10.4635762,3.01989636 10.9129957,2.57038411 11.4661722,2.57038411 L37.6762177,2.57038411 Z" id="Shape" fill="#49A0AE" fill-rule="nonzero"></path>
                <path d="M55.7933775,16.4494834 L42.2457219,16.4494834 C40.2871523,16.4494834 38.7000795,14.861351 38.7000795,12.9029934 L38.7000795,0.0275496689 L55.7933775,16.4494834 L55.7933775,16.4494834 Z" id="Shape" fill="#3F929A"></path>
                <path d="M38.1456954,39.4805828 C38.1456954,41.7407152 36.3090327,43.5727682 34.0445376,43.5727682 L4.10115774,43.5727682 C1.83560054,43.5727682 0,41.7407152 0,39.4805828 L0,26.978755 C0,24.7186225 1.83560054,22.8874172 4.10115774,22.8874172 L34.0445376,22.8874172 C36.3092451,22.8874172 38.1456954,24.7188344 38.1456954,26.978755 L38.1456954,39.4805828 L38.1456954,39.4805828 Z" id="Shape" fill="#3F929A"></path>
                <path d="M7.01096689,37.794702 C6.82977483,37.794702 6.73313907,37.6376689 6.80561589,37.4806358 L10.5623311,29.3511523 C10.5985695,29.2786755 10.6589669,29.2182781 10.7676821,29.2182781 L10.8884768,29.2182781 C11.0092715,29.2182781 11.0575894,29.2786755 11.0938278,29.3511523 L14.8143046,37.4806358 C14.8867815,37.6376689 14.7901457,37.794702 14.6089536,37.794702 L13.5580397,37.794702 C13.3768477,37.794702 13.2922914,37.7222252 13.2077351,37.5531126 L12.6158411,36.2485298 L9.00407947,36.2485298 L8.41218543,37.5531126 C8.36386755,37.6739073 8.25515232,37.794702 8.06188079,37.794702 L7.01096689,37.794702 Z M9.59597351,34.9077086 L12.023947,34.9077086 L10.816,32.2502252 L10.7797616,32.2502252 L9.59597351,34.9077086 Z M16.4070993,37.5651921 L16.4070993,29.5685828 C16.4070993,29.4477881 16.5037351,29.3390728 16.6366093,29.3390728 L19.4752848,29.3390728 C20.9610596,29.3390728 22.1810861,30.5470199 22.1810861,32.0086358 C22.1810861,33.5064901 20.9610596,34.7265166 19.4873642,34.7265166 L17.9774305,34.7265166 L17.9774305,37.5651921 C17.9774305,37.6859868 17.8687152,37.794702 17.7479205,37.794702 L16.6366093,37.794702 C16.5037351,37.794702 16.4070993,37.6859868 16.4070993,37.5651921 Z M17.9774305,33.2528212 L19.4269669,33.2528212 C20.1034172,33.2528212 20.6228344,32.709245 20.6228344,31.9965563 C20.6228344,31.3321854 20.1034172,30.8248477 19.4269669,30.8248477 L17.9774305,30.8248477 L17.9774305,33.2528212 Z M24.0517086,37.5047947 L24.0517086,29.6289801 C24.0517086,29.471947 24.1725033,29.3390728 24.3416159,29.3390728 L25.4046093,29.3390728 C25.5616424,29.3390728 25.6945166,29.471947 25.6945166,29.6289801 L25.6945166,32.8904371 L28.738543,29.4598675 C28.7868609,29.3994702 28.8593377,29.3390728 28.968053,29.3390728 L30.176,29.3390728 C30.4055099,29.3390728 30.5263046,29.5927417 30.3692715,29.7739338 L27.2165298,33.325298 L30.5987815,37.3719205 C30.7195762,37.5289536 30.6229404,37.794702 30.381351,37.794702 L29.0646887,37.794702 C28.943894,37.794702 28.8714172,37.7463841 28.8472583,37.7101457 L25.6945166,33.8205563 L25.6945166,37.5047947 C25.6945166,37.6618278 25.5616424,37.794702 25.4046093,37.794702 L24.3416159,37.794702 C24.1725033,37.794702 24.0517086,37.6618278 24.0517086,37.5047947 Z" id="APK" fill="#FFFFFF" fill-rule="nonzero"></path>
            </g>
        </g>
    </g>
</svg>