<?xml version="1.0" encoding="UTF-8"?>
<svg width="64px" height="64px" viewBox="0 0 64 64" version="1.1" xmlns="http://www.w3.org/2000/svg" xmlns:xlink="http://www.w3.org/1999/xlink">
    <!-- Generator: Sketch 56.3 (81716) - https://sketch.com -->
    <title>css</title>
    <desc>Created with Sketch.</desc>
    <g id="css" stroke="none" stroke-width="1" fill="none" fill-rule="evenodd">
        <g id="Group" transform="translate(4.000000, 0.000000)">
            <g>
                <path d="M7.9205298,3.57382781 L7.9205298,60.3115232 C7.9205298,62.2700927 9.50845033,63.8571656 11.4661722,63.8571656 L52.2475232,63.8571656 C54.2060927,63.8571656 55.7931656,62.2698808 55.7931656,60.3115232 L55.7931656,16.4492715 L38.6998675,0.0273377483 L11.4661722,0.0273377483 C9.50845033,0.0273377483 7.9205298,1.6154702 7.9205298,3.57382781 Z M37.6762177,2.57038411 L53.2501192,17.5325979 L53.2501192,60.3115232 C53.2501192,60.8654918 52.8015103,61.3141192 52.2475232,61.3141192 L11.4661722,61.3141192 C10.9125493,61.3141192 10.4635762,60.8652202 10.4635762,60.3115232 L10.4635762,3.57382781 C10.4635762,3.01989636 10.9129957,2.57038411 11.4661722,2.57038411 L37.6762177,2.57038411 Z" id="Shape" fill="#1FA85B" fill-rule="nonzero"></path>
                <path d="M55.7933775,16.4494834 L42.2457219,16.4494834 C40.2871523,16.4494834 38.7000795,14.861351 38.7000795,12.9029934 L38.7000795,0.0275496689 L55.7933775,16.4494834 L55.7933775,16.4494834 Z" id="Shape" fill="#208E4D"></path>
                <path d="M38.1456954,39.4805828 C38.1456954,41.7407152 36.3090327,43.5727682 34.0445376,43.5727682 L4.10115774,43.5727682 C1.83560054,43.5727682 0,41.7407152 0,39.4805828 L0,26.978755 C0,24.7186225 1.83560054,22.8874172 4.10115774,22.8874172 L34.0445376,22.8874172 C36.3092451,22.8874172 38.1456954,24.7188344 38.1456954,26.978755 L38.1456954,39.4805828 L38.1456954,39.4805828 Z" id="Shape" fill="#208E4D"></path>
                <path d="M8.16063576,33.5789669 C8.16063576,31.1630728 10.1054305,29.2182781 12.5213245,29.2182781 C13.741351,29.2182781 14.6231523,29.6048212 15.4445563,30.3416689 C15.5532715,30.4383046 15.5532715,30.5832583 15.4566358,30.679894 L14.7197881,31.4409007 C14.6352318,31.5375364 14.5144371,31.5375364 14.4178013,31.4409007 C13.9104636,30.9939603 13.2340132,30.7282119 12.5575629,30.7282119 C11.0113907,30.7282119 9.86384106,32.0207152 9.86384106,33.5427285 C9.86384106,35.0526623 11.0234702,36.3330861 12.5696424,36.3330861 C13.2944106,36.3330861 13.9104636,36.0552583 14.4178013,35.6445563 C14.5144371,35.56 14.6473113,35.5720795 14.7197881,35.6445563 L15.4687152,36.4176424 C15.565351,36.5021987 15.5411921,36.6592318 15.4566358,36.7437881 C14.6352318,37.5410331 13.5963974,37.9154967 12.5213245,37.9154967 C10.1054305,37.9154967 8.16063576,35.9948609 8.16063576,33.5789669 Z M19.7431523,37.9154967 C18.2211391,37.9154967 17.4359735,37.2752848 17.0856689,36.973298 C16.9648742,36.8766623 16.9165563,36.8041854 17.0252715,36.6109139 L17.4601325,35.8619868 C17.5567682,35.6928742 17.7621192,35.6928742 17.8708344,35.7774305 C18.3660927,36.151894 18.9096689,36.5263576 19.6948344,36.5263576 C20.3229669,36.5263576 20.7940662,36.1156556 20.7940662,35.5962384 C20.7940662,34.9801854 20.274649,34.557404 19.2599735,34.146702 C18.1245033,33.6876821 16.9890331,32.9629139 16.9890331,31.5375364 C16.9890331,30.4624636 17.7862781,29.2182781 19.7069139,29.2182781 C20.9390199,29.2182781 21.8812185,29.8464106 22.1228079,30.0276026 C22.2436026,30.1000795 22.2798411,30.3054305 22.1952848,30.4262252 L21.7362649,31.114755 C21.6396291,31.2597086 21.4584371,31.3563444 21.3134834,31.2597086 C20.7940662,30.9335629 20.2988079,30.5953377 19.6344371,30.5953377 C18.9459073,30.5953377 18.5714437,30.9818808 18.5714437,31.4409007 C18.5714437,32.0086358 19.0183841,32.3951788 19.9968212,32.7938013 C21.1685298,33.2649007 22.5214305,33.9655099 22.5214305,35.5237616 C22.5214305,36.767947 21.4463576,37.9154967 19.7431523,37.9154967 Z M26.8562649,37.9154967 C25.3342517,37.9154967 24.5490861,37.2752848 24.1987815,36.973298 C24.0779868,36.8766623 24.0296689,36.8041854 24.1383841,36.6109139 L24.573245,35.8619868 C24.6698808,35.6928742 24.8752318,35.6928742 24.983947,35.7774305 C25.4792053,36.151894 26.0227815,36.5263576 26.807947,36.5263576 C27.4360795,36.5263576 27.9071788,36.1156556 27.9071788,35.5962384 C27.9071788,34.9801854 27.3877616,34.557404 26.3730861,34.146702 C25.2376159,33.6876821 24.1021457,32.9629139 24.1021457,31.5375364 C24.1021457,30.4624636 24.8993907,29.2182781 26.8200265,29.2182781 C28.0521325,29.2182781 28.9943311,29.8464106 29.2359205,30.0276026 C29.3567152,30.1000795 29.3929536,30.3054305 29.3083974,30.4262252 L28.8493775,31.114755 C28.7527417,31.2597086 28.5715497,31.3563444 28.426596,31.2597086 C27.9071788,30.9335629 27.4119205,30.5953377 26.7475497,30.5953377 C26.0590199,30.5953377 25.6845563,30.9818808 25.6845563,31.4409007 C25.6845563,32.0086358 26.1314967,32.3951788 27.1099338,32.7938013 C28.2816424,33.2649007 29.634543,33.9655099 29.634543,35.5237616 C29.634543,36.767947 28.5594702,37.9154967 26.8562649,37.9154967 Z" id="CSS" fill="#FFFFFF" fill-rule="nonzero"></path>
            </g>
        </g>
    </g>
</svg>