<?xml version="1.0" encoding="UTF-8"?>
<svg width="64px" height="64px" viewBox="0 0 64 64" version="1.1" xmlns="http://www.w3.org/2000/svg" xmlns:xlink="http://www.w3.org/1999/xlink">
    <!-- Generator: Sketch 56.3 (81716) - https://sketch.com -->
    <title>doc</title>
    <desc>Created with Sketch.</desc>
    <g id="doc" stroke="none" stroke-width="1" fill="none" fill-rule="evenodd">
        <g id="Group" transform="translate(4.000000, 0.000000)">
            <g>
                <path d="M7.9205298,3.57382781 L7.9205298,60.3115232 C7.9205298,62.2700927 9.50845033,63.8571656 11.4661722,63.8571656 L52.2475232,63.8571656 C54.2060927,63.8571656 55.7931656,62.2698808 55.7931656,60.3115232 L55.7931656,16.4492715 L38.6998675,0.0273377483 L11.4661722,0.0273377483 C9.50845033,0.0273377483 7.9205298,1.6154702 7.9205298,3.57382781 Z M37.6762177,2.57038411 L53.2501192,17.5325979 L53.2501192,60.3115232 C53.2501192,60.8654918 52.8015103,61.3141192 52.2475232,61.3141192 L11.4661722,61.3141192 C10.9125493,61.3141192 10.4635762,60.8652202 10.4635762,60.3115232 L10.4635762,3.57382781 C10.4635762,3.01989636 10.9129957,2.57038411 11.4661722,2.57038411 L37.6762177,2.57038411 Z" id="Shape" fill="#4A6C96" fill-rule="nonzero"></path>
                <path d="M55.7933775,16.4494834 L42.2457219,16.4494834 C40.2871523,16.4494834 38.7000795,14.861351 38.7000795,12.9029934 L38.7000795,0.0275496689 L55.7933775,16.4494834 L55.7933775,16.4494834 Z" id="Shape" fill="#3C5B78"></path>
                <path d="M38.0543576,39.4805828 C38.0543576,41.7407152 36.2220927,43.5727682 33.9630199,43.5727682 L4.09133775,43.5727682 C1.8312053,43.5727682 0,41.7407152 0,39.4805828 L0,26.978755 C0,24.7186225 1.8312053,22.8874172 4.09133775,22.8874172 L33.9630199,22.8874172 C36.2223046,22.8874172 38.0543576,24.7188344 38.0543576,26.978755 L38.0543576,39.4805828 L38.0543576,39.4805828 Z" id="Shape" fill="#3C5B78"></path>
                <path d="M5.68900662,37.5651921 L5.68900662,29.5685828 C5.68900662,29.4477881 5.78564238,29.3390728 5.90643709,29.3390728 L8.76927152,29.3390728 C11.1006093,29.3390728 13.0091656,31.2355497 13.0091656,33.5548079 C13.0091656,35.8982252 11.1006093,37.794702 8.76927152,37.794702 L5.90643709,37.794702 C5.78564238,37.794702 5.68900662,37.6859868 5.68900662,37.5651921 Z M7.24725828,36.3210066 L8.62431788,36.3210066 C10.194649,36.3210066 11.3421987,35.2096954 11.3421987,33.5548079 C11.3421987,31.912 10.194649,30.8006887 8.62431788,30.8006887 L7.24725828,30.8006887 L7.24725828,36.3210066 Z M14.6019603,33.5789669 C14.6019603,31.1630728 16.522596,29.2182781 18.9384901,29.2182781 C21.3543841,29.2182781 23.2870993,31.1630728 23.2870993,33.5789669 C23.2870993,35.9948609 21.3543841,37.9154967 18.9384901,37.9154967 C16.522596,37.9154967 14.6019603,35.9948609 14.6019603,33.5789669 Z M16.1722914,33.5789669 C16.1722914,35.1009801 17.4164768,36.3451656 18.9384901,36.3451656 C20.4605033,36.3451656 21.7167682,35.1009801 21.7167682,33.5789669 C21.7167682,32.0569536 20.4605033,30.7886093 18.9384901,30.7886093 C17.4164768,30.7886093 16.1722914,32.0569536 16.1722914,33.5789669 Z M24.879894,33.5789669 C24.879894,31.1630728 26.8246887,29.2182781 29.2405828,29.2182781 C30.4606093,29.2182781 31.3424106,29.6048212 32.1638146,30.3416689 C32.2725298,30.4383046 32.2725298,30.5832583 32.175894,30.679894 L31.4390464,31.4409007 C31.3544901,31.5375364 31.2336954,31.5375364 31.1370596,31.4409007 C30.6297219,30.9939603 29.9532715,30.7282119 29.2768212,30.7282119 C27.730649,30.7282119 26.5830993,32.0207152 26.5830993,33.5427285 C26.5830993,35.0526623 27.7427285,36.3330861 29.2889007,36.3330861 C30.0136689,36.3330861 30.6297219,36.0552583 31.1370596,35.6445563 C31.2336954,35.56 31.3665695,35.5720795 31.4390464,35.6445563 L32.1879735,36.4176424 C32.2846093,36.5021987 32.2604503,36.6592318 32.175894,36.7437881 C31.3544901,37.5410331 30.3156556,37.9154967 29.2405828,37.9154967 C26.8246887,37.9154967 24.879894,35.9948609 24.879894,33.5789669 Z" id="DOC" fill="#FFFFFF" fill-rule="nonzero"></path>
            </g>
        </g>
    </g>
</svg>