<?xml version="1.0" encoding="UTF-8"?>
<svg width="64px" height="64px" viewBox="0 0 64 64" version="1.1" xmlns="http://www.w3.org/2000/svg" xmlns:xlink="http://www.w3.org/1999/xlink">
    <!-- Generator: Sketch 56.3 (81716) - https://sketch.com -->
    <title>docx</title>
    <desc>Created with Sketch.</desc>
    <g id="docx" stroke="none" stroke-width="1" fill="none" fill-rule="evenodd">
        <g id="Group" transform="translate(4.000000, 0.000000)">
            <g>
                <path d="M7.9205298,3.57382781 L7.9205298,60.3115232 C7.9205298,62.2700927 9.50845033,63.8571656 11.4661722,63.8571656 L52.2475232,63.8571656 C54.2060927,63.8571656 55.7931656,62.2698808 55.7931656,60.3115232 L55.7931656,16.4492715 L38.6998675,0.0273377483 L11.4661722,0.0273377483 C9.50845033,0.0273377483 7.9205298,1.6154702 7.9205298,3.57382781 Z M37.6762177,2.57038411 L53.2501192,17.5325979 L53.2501192,60.3115232 C53.2501192,60.8654918 52.8015103,61.3141192 52.2475232,61.3141192 L11.4661722,61.3141192 C10.9125493,61.3141192 10.4635762,60.8652202 10.4635762,60.3115232 L10.4635762,3.57382781 C10.4635762,3.01989636 10.9129957,2.57038411 11.4661722,2.57038411 L37.6762177,2.57038411 Z" id="Shape" fill="#344E5D" fill-rule="nonzero"></path>
                <path d="M55.7933775,16.4494834 L42.2457219,16.4494834 C40.2871523,16.4494834 38.7000795,14.861351 38.7000795,12.9029934 L38.7000795,0.0275496689 L55.7933775,16.4494834 L55.7933775,16.4494834 Z" id="Shape" fill="#2A4049"></path>
                <path d="M38.9933775,39.4805828 C38.9933775,41.7407152 37.1159001,43.5727682 34.8010829,43.5727682 L4.19229458,43.5727682 C1.87639166,43.5727682 0,41.7407152 0,39.4805828 L0,26.978755 C0,24.7186225 1.87639166,22.8874172 4.19229458,22.8874172 L34.8010829,22.8874172 C37.1161172,22.8874172 38.9933775,24.7188344 38.9933775,26.978755 L38.9933775,39.4805828 L38.9933775,39.4805828 Z" id="Shape" fill="#2A4049"></path>
                <path d="M2.29827815,37.5651921 L2.29827815,29.5685828 C2.29827815,29.4477881 2.39491391,29.3390728 2.51570861,29.3390728 L5.37854305,29.3390728 C7.70988079,29.3390728 9.61843709,31.2355497 9.61843709,33.5548079 C9.61843709,35.8982252 7.70988079,37.794702 5.37854305,37.794702 L2.51570861,37.794702 C2.39491391,37.794702 2.29827815,37.6859868 2.29827815,37.5651921 Z M3.8565298,36.3210066 L5.2335894,36.3210066 C6.80392053,36.3210066 7.9514702,35.2096954 7.9514702,33.5548079 C7.9514702,31.912 6.80392053,30.8006887 5.2335894,30.8006887 L3.8565298,30.8006887 L3.8565298,36.3210066 Z M11.2112318,33.5789669 C11.2112318,31.1630728 13.1318675,29.2182781 15.5477616,29.2182781 C17.9636556,29.2182781 19.8963709,31.1630728 19.8963709,33.5789669 C19.8963709,35.9948609 17.9636556,37.9154967 15.5477616,37.9154967 C13.1318675,37.9154967 11.2112318,35.9948609 11.2112318,33.5789669 Z M12.7815629,33.5789669 C12.7815629,35.1009801 14.0257483,36.3451656 15.5477616,36.3451656 C17.0697748,36.3451656 18.3260397,35.1009801 18.3260397,33.5789669 C18.3260397,32.0569536 17.0697748,30.7886093 15.5477616,30.7886093 C14.0257483,30.7886093 12.7815629,32.0569536 12.7815629,33.5789669 Z M21.4891656,33.5789669 C21.4891656,31.1630728 23.4339603,29.2182781 25.8498543,29.2182781 C27.0698808,29.2182781 27.9516821,29.6048212 28.7730861,30.3416689 C28.8818013,30.4383046 28.8818013,30.5832583 28.7851656,30.679894 L28.0483179,31.4409007 C27.9637616,31.5375364 27.8429669,31.5375364 27.7463311,31.4409007 C27.2389934,30.9939603 26.562543,30.7282119 25.8860927,30.7282119 C24.3399205,30.7282119 23.1923709,32.0207152 23.1923709,33.5427285 C23.1923709,35.0526623 24.352,36.3330861 25.8981722,36.3330861 C26.6229404,36.3330861 27.2389934,36.0552583 27.7463311,35.6445563 C27.8429669,35.56 27.9758411,35.5720795 28.0483179,35.6445563 L28.797245,36.4176424 C28.8938808,36.5021987 28.8697219,36.6592318 28.7851656,36.7437881 C27.9637616,37.5410331 26.9249272,37.9154967 25.8498543,37.9154967 C23.4339603,37.9154967 21.4891656,35.9948609 21.4891656,33.5789669 Z M30.1001325,37.4564768 L32.6126623,33.4581722 L30.1967682,29.677298 C30.1001325,29.5202649 30.1967682,29.3390728 30.4021192,29.3390728 L31.8033377,29.3390728 C31.8999735,29.3390728 31.9603709,29.3994702 31.9966093,29.4477881 L33.5186225,32.0086358 L33.5669404,32.0086358 L35.1251921,29.4477881 C35.149351,29.3994702 35.2218278,29.3390728 35.3184636,29.3390728 L36.7196821,29.3390728 C36.9250331,29.3390728 37.0216689,29.5202649 36.9250331,29.677298 L34.4970596,33.4581722 L37.0095894,37.4564768 C37.1062252,37.6255894 37.0095894,37.794702 36.8042384,37.794702 L35.4996556,37.794702 C35.4030199,37.794702 35.3184636,37.7343046 35.2943046,37.6859868 L33.5669404,34.9197881 L33.5186225,34.9197881 L31.8274967,37.6859868 C31.7912583,37.7343046 31.7187815,37.794702 31.6221457,37.794702 L30.3175629,37.794702 C30.1001325,37.794702 30.0034967,37.6135099 30.1001325,37.4564768 Z" id="DOCX" fill="#FFFFFF" fill-rule="nonzero"></path>
            </g>
        </g>
    </g>
</svg>