<?xml version="1.0" encoding="UTF-8"?>
<svg width="64px" height="64px" viewBox="0 0 64 64" version="1.1" xmlns="http://www.w3.org/2000/svg" xmlns:xlink="http://www.w3.org/1999/xlink">
    <!-- Generator: Sketch 56.3 (81716) - https://sketch.com -->
    <title>js</title>
    <desc>Created with Sketch.</desc>
    <g id="js" stroke="none" stroke-width="1" fill="none" fill-rule="evenodd">
        <g id="Group" transform="translate(4.000000, 0.000000)">
            <g>
                <path d="M7.9205298,3.57382781 L7.9205298,60.3115232 C7.9205298,62.2700927 9.50845033,63.8571656 11.4661722,63.8571656 L52.2475232,63.8571656 C54.2060927,63.8571656 55.7931656,62.2698808 55.7931656,60.3115232 L55.7931656,16.4492715 L38.6998675,0.0273377483 L11.4661722,0.0273377483 C9.50845033,0.0273377483 7.9205298,1.6154702 7.9205298,3.57382781 Z M37.6762177,2.57038411 L53.2501192,17.5325979 L53.2501192,60.3115232 C53.2501192,60.8654918 52.8015103,61.3141192 52.2475232,61.3141192 L11.4661722,61.3141192 C10.9125493,61.3141192 10.4635762,60.8652202 10.4635762,60.3115232 L10.4635762,3.57382781 C10.4635762,3.01989636 10.9129957,2.57038411 11.4661722,2.57038411 L37.6762177,2.57038411 Z" id="Shape" fill="#E07325" fill-rule="nonzero"></path>
                <path d="M55.7933775,16.4494834 L42.2457219,16.4494834 C40.2871523,16.4494834 38.7000795,14.861351 38.7000795,12.9029934 L38.7000795,0.0275496689 L55.7933775,16.4494834 L55.7933775,16.4494834 Z" id="Shape" fill="#C76428"></path>
                <path d="M38.1456954,39.4805828 C38.1456954,41.7407152 36.3090327,43.5727682 34.0445376,43.5727682 L4.10115774,43.5727682 C1.83560054,43.5727682 0,41.7407152 0,39.4805828 L0,26.978755 C0,24.7186225 1.83560054,22.8874172 4.10115774,22.8874172 L34.0445376,22.8874172 C36.3092451,22.8874172 38.1456954,24.7188344 38.1456954,26.978755 L38.1456954,39.4805828 L38.1456954,39.4805828 Z" id="Shape" fill="#C76428"></path>
                <path d="M12.6724238,37.0336954 C12.6120265,36.9370596 12.624106,36.8162649 12.6965828,36.7317086 L13.3247152,36.0914967 C13.4575894,35.970702 13.5783841,35.9948609 13.6870993,36.1035762 C13.8441325,36.2726887 14.0857219,36.4901192 14.4843444,36.4901192 C14.9796026,36.4901192 15.450702,36.2243709 15.450702,35.3908874 L15.450702,29.5685828 C15.450702,29.4477881 15.5473377,29.3390728 15.6802119,29.3390728 L16.8156821,29.3390728 C16.9485563,29.3390728 17.0451921,29.4477881 17.0451921,29.5685828 L17.0451921,35.3908874 C17.0451921,37.0699338 15.9218013,37.9154967 14.5085033,37.9154967 C13.4575894,37.9154967 12.8777748,37.2873642 12.6724238,37.0336954 Z M21.8752848,37.9154967 C20.3532715,37.9154967 19.568106,37.2752848 19.2178013,36.973298 C19.0970066,36.8766623 19.0486887,36.8041854 19.157404,36.6109139 L19.5922649,35.8619868 C19.6889007,35.6928742 19.8942517,35.6928742 20.0029669,35.7774305 C20.4982252,36.151894 21.0418013,36.5263576 21.8269669,36.5263576 C22.4550993,36.5263576 22.9261987,36.1156556 22.9261987,35.5962384 C22.9261987,34.9801854 22.4067815,34.557404 21.392106,34.146702 C20.2566358,33.6876821 19.1211656,32.9629139 19.1211656,31.5375364 C19.1211656,30.4624636 19.9184106,29.2182781 21.8390464,29.2182781 C23.0711523,29.2182781 24.013351,29.8464106 24.2549404,30.0276026 C24.3757351,30.1000795 24.4119735,30.3054305 24.3274172,30.4262252 L23.8683974,31.114755 C23.7717616,31.2597086 23.5905695,31.3563444 23.4456159,31.2597086 C22.9261987,30.9335629 22.4309404,30.5953377 21.7665695,30.5953377 C21.0780397,30.5953377 20.7035762,30.9818808 20.7035762,31.4409007 C20.7035762,32.0086358 21.1505166,32.3951788 22.1289536,32.7938013 C23.3006623,33.2649007 24.6535629,33.9655099 24.6535629,35.5237616 C24.6535629,36.767947 23.5784901,37.9154967 21.8752848,37.9154967 Z" id="JS" fill="#FFFFFF" fill-rule="nonzero"></path>
            </g>
        </g>
    </g>
</svg>