<?xml version="1.0" encoding="UTF-8"?>
<svg width="64px" height="64px" viewBox="0 0 64 64" version="1.1" xmlns="http://www.w3.org/2000/svg" xmlns:xlink="http://www.w3.org/1999/xlink">
    <!-- Generator: Sketch 56.3 (81716) - https://sketch.com -->
    <title>mp3</title>
    <desc>Created with Sketch.</desc>
    <g id="mp3" stroke="none" stroke-width="1" fill="none" fill-rule="evenodd">
        <g id="Group" transform="translate(4.000000, 0.000000)">
            <g>
                <path d="M7.9205298,3.57298013 L7.9205298,60.3110993 C7.9205298,62.269457 9.50845033,63.8565298 11.4661722,63.8565298 L52.2475232,63.8565298 C54.2060927,63.8565298 55.7931656,62.269457 55.7931656,60.3110993 L55.7931656,16.4492715 L38.6998675,0.0273377483 L11.4661722,0.0273377483 C9.50845033,0.0273377483 7.9205298,1.61462252 7.9205298,3.57298013 Z M37.6762177,2.57038411 L53.2501192,17.5325979 L53.2501192,60.3110993 C53.2501192,60.8649805 52.8015977,61.3134834 52.2475232,61.3134834 L11.4661722,61.3134834 C10.9125585,61.3134834 10.4635762,60.8645937 10.4635762,60.3110993 L10.4635762,3.57298013 C10.4635762,3.0193983 10.912646,2.57038411 11.4661722,2.57038411 L37.6762177,2.57038411 Z" id="Shape" fill="#0E7DC1" fill-rule="nonzero"></path>
                <path d="M55.7933775,16.4492715 L42.2457219,16.4492715 C40.2871523,16.4492715 38.7000795,14.8619868 38.7000795,12.9036291 L38.7000795,0.0275496689 L55.7933775,16.4492715 L55.7933775,16.4492715 Z" id="Shape" fill="#2C9DD8"></path>
                <path d="M38.0543576,39.4795232 C38.0543576,41.7396556 36.2220927,43.5717086 33.9630199,43.5717086 L4.09133775,43.5717086 C1.8312053,43.5717086 0,41.7396556 0,39.4795232 L0,26.9779073 C0,24.7177748 1.8312053,22.8874172 4.09133775,22.8874172 L33.9630199,22.8874172 C36.2223046,22.8874172 38.0543576,24.7177748 38.0543576,26.9779073 L38.0543576,39.4795232 L38.0543576,39.4795232 Z" id="Shape" fill="#2C9DD8"></path>
                <path d="M6.50150993,37.5168742 L7.93896689,29.3994702 C7.95104636,29.3028344 8.02352318,29.2182781 8.15639735,29.2182781 L8.34966887,29.2182781 C8.44630464,29.2182781 8.51878146,29.266596 8.55501987,29.3390728 L11.2125033,35.0405828 L11.2487417,35.0405828 L13.9062252,29.3390728 C13.9424636,29.266596 14.0028609,29.2182781 14.1115762,29.2182781 L14.3048477,29.2182781 C14.4377219,29.2182781 14.5101987,29.3028344 14.5222781,29.3994702 L15.9476556,37.5168742 C15.983894,37.6859868 15.8872583,37.794702 15.7302252,37.794702 L14.6309934,37.794702 C14.5222781,37.794702 14.4256424,37.6980662 14.4014834,37.6135099 L13.6887947,33.0353907 L13.6525563,33.0353907 L11.538649,37.7826225 C11.5144901,37.8550993 11.4420132,37.9154967 11.333298,37.9154967 L11.1158675,37.9154967 C11.0071523,37.9154967 10.946755,37.8550993 10.9105166,37.7826225 L8.77245033,33.0353907 L8.73621192,33.0353907 L8.03560265,37.6135099 C8.02352318,37.6980662 7.92688742,37.794702 7.81817219,37.794702 L6.73101987,37.794702 C6.57398675,37.794702 6.47735099,37.6859868 6.50150993,37.5168742 Z M18.071947,37.5651921 L18.071947,29.5685828 C18.071947,29.4477881 18.1685828,29.3390728 18.301457,29.3390728 L21.1401325,29.3390728 C22.6259073,29.3390728 23.8459338,30.5470199 23.8459338,32.0086358 C23.8459338,33.5064901 22.6259073,34.7265166 21.1522119,34.7265166 L19.6422781,34.7265166 L19.6422781,37.5651921 C19.6422781,37.6859868 19.5335629,37.794702 19.4127682,37.794702 L18.301457,37.794702 C18.1685828,37.794702 18.071947,37.6859868 18.071947,37.5651921 Z M19.6422781,33.2528212 L21.0918146,33.2528212 C21.7682649,33.2528212 22.2876821,32.709245 22.2876821,31.9965563 C22.2876821,31.3321854 21.7682649,30.8248477 21.0918146,30.8248477 L19.6422781,30.8248477 L19.6422781,33.2528212 Z M25.2696159,36.8162649 C25.1971391,36.7196291 25.2092185,36.586755 25.2816954,36.5021987 L25.9219073,35.8861457 C26.0306225,35.7895099 26.1393377,35.7895099 26.2359735,35.8861457 C26.5741987,36.2243709 27.0090596,36.562596 27.7700662,36.562596 C28.5310728,36.562596 29.0867285,36.0794172 29.0867285,35.4392053 C29.0867285,34.6419603 28.4948344,34.1587815 27.3714437,34.1587815 L26.6708344,34.1587815 C26.5379603,34.1587815 26.4413245,34.0621457 26.4413245,33.9171921 L26.4413245,33.1320265 C26.4413245,32.9629139 26.5258808,32.8783576 26.6708344,32.8783576 L27.3714437,32.8783576 C28.3981987,32.8783576 28.9176159,32.3830993 28.9176159,31.7428874 C28.9176159,31.0664371 28.3378013,30.6074172 27.7096689,30.6074172 C27.0573775,30.6074172 26.658755,30.9456424 26.453404,31.1993113 C26.3688477,31.295947 26.223894,31.3080265 26.1151788,31.2113907 L25.5112053,30.6436556 C25.4024901,30.5590993 25.426649,30.4141457 25.5112053,30.3175099 C25.8735894,29.8584901 26.6466755,29.2182781 27.842543,29.2182781 C29.2920795,29.2182781 30.5000265,30.1000795 30.5000265,31.501298 C30.5000265,32.5763709 29.7752583,33.1682649 29.2196026,33.4219338 L29.2196026,33.4702517 C29.8839735,33.7239205 30.717457,34.3882914 30.717457,35.4875232 C30.717457,36.9008212 29.5699073,37.9154967 27.8546225,37.9154967 C26.3084503,37.9154967 25.5474437,37.1303311 25.2696159,36.8162649 Z" id="MP3" fill="#FFFFFF" fill-rule="nonzero"></path>
            </g>
        </g>
    </g>
</svg>