<?xml version="1.0" encoding="UTF-8"?>
<svg width="64px" height="64px" viewBox="0 0 64 64" version="1.1" xmlns="http://www.w3.org/2000/svg" xmlns:xlink="http://www.w3.org/1999/xlink">
    <!-- Generator: Sketch 56.3 (81716) - https://sketch.com -->
    <title>pdf</title>
    <desc>Created with Sketch.</desc>
    <g id="pdf" stroke="none" stroke-width="1" fill="none" fill-rule="evenodd">
        <g id="Group" transform="translate(4.000000, 0.000000)">
            <g>
                <path d="M7.9205298,3.57403974 L7.9205298,60.3117351 C7.9205298,62.2703046 9.50845033,63.8573775 11.4661722,63.8573775 L52.2475232,63.8573775 C54.2060927,63.8573775 55.7933775,62.2700927 55.7933775,60.3117351 L55.7933775,16.4494834 L38.7000795,0.0275496689 L11.4661722,0.0275496689 C9.50845033,0.0275496689 7.9205298,1.61568212 7.9205298,3.57403974 Z M37.6764297,2.57059603 L53.2503311,17.5328098 L53.2503311,60.3117351 C53.2503311,60.8656163 52.8015977,61.3143311 52.2475232,61.3143311 L11.4661722,61.3143311 C10.9125493,61.3143311 10.4635762,60.8654322 10.4635762,60.3117351 L10.4635762,3.57403974 C10.4635762,3.02010828 10.9129957,2.57059603 11.4661722,2.57059603 L37.6764297,2.57059603 Z" id="Shape" fill="#A11D2A" fill-rule="nonzero"></path>
                <path d="M55.7933775,16.4494834 L42.2457219,16.4494834 C40.2871523,16.4494834 38.7000795,14.861351 38.7000795,12.9029934 L38.7000795,0.0275496689 L55.7933775,16.4494834 L55.7933775,16.4494834 Z" id="Shape" fill="#7F1325"></path>
                <path d="M38.0543576,39.4805828 C38.0543576,41.7407152 36.2220927,43.5727682 33.9630199,43.5727682 L4.09133775,43.5727682 C1.8312053,43.5727682 0,41.7407152 0,39.4805828 L0,26.978755 C0,24.7186225 1.8312053,22.8874172 4.09133775,22.8874172 L33.9630199,22.8874172 C36.2223046,22.8874172 38.0543576,24.7186225 38.0543576,26.978755 L38.0543576,39.4805828 L38.0543576,39.4805828 Z" id="Shape" fill="#7F1325"></path>
                <path d="M7.80821192,37.5651921 L7.80821192,29.5685828 C7.80821192,29.4477881 7.90484768,29.3390728 8.03772185,29.3390728 L10.8763974,29.3390728 C12.3621722,29.3390728 13.5821987,30.5470199 13.5821987,32.0086358 C13.5821987,33.5064901 12.3621722,34.7265166 10.8884768,34.7265166 L9.37854305,34.7265166 L9.37854305,37.5651921 C9.37854305,37.6859868 9.26982781,37.794702 9.14903311,37.794702 L8.03772185,37.794702 C7.90484768,37.794702 7.80821192,37.6859868 7.80821192,37.5651921 Z M9.37854305,33.2528212 L10.8280795,33.2528212 C11.5045298,33.2528212 12.023947,32.709245 12.023947,31.9965563 C12.023947,31.3321854 11.5045298,30.8248477 10.8280795,30.8248477 L9.37854305,30.8248477 L9.37854305,33.2528212 Z M15.4528212,37.5651921 L15.4528212,29.5685828 C15.4528212,29.4477881 15.549457,29.3390728 15.6702517,29.3390728 L18.5330861,29.3390728 C20.8644238,29.3390728 22.7729801,31.2355497 22.7729801,33.5548079 C22.7729801,35.8982252 20.8644238,37.794702 18.5330861,37.794702 L15.6702517,37.794702 C15.549457,37.794702 15.4528212,37.6859868 15.4528212,37.5651921 Z M17.0110728,36.3210066 L18.3881325,36.3210066 C19.9584636,36.3210066 21.1060132,35.2096954 21.1060132,33.5548079 C21.1060132,31.912 19.9584636,30.8006887 18.3881325,30.8006887 L17.0110728,30.8006887 L17.0110728,36.3210066 Z M24.8610331,37.5651921 L24.8610331,29.5685828 C24.8610331,29.4477881 24.9576689,29.3390728 25.090543,29.3390728 L30.0068874,29.3390728 C30.1397616,29.3390728 30.2363974,29.4477881 30.2363974,29.5685828 L30.2363974,30.5590993 C30.2363974,30.679894 30.1397616,30.7886093 30.0068874,30.7886093 L26.4313642,30.7886093 L26.4313642,33.0595497 L29.4149934,33.0595497 C29.5357881,33.0595497 29.6445033,33.1682649 29.6445033,33.2890596 L29.6445033,34.2795762 C29.6445033,34.4003709 29.5357881,34.5090861 29.4149934,34.5090861 L26.4313642,34.5090861 L26.4313642,37.5651921 C26.4313642,37.6859868 26.322649,37.794702 26.2018543,37.794702 L25.090543,37.794702 C24.9576689,37.794702 24.8610331,37.6859868 24.8610331,37.5651921 Z" id="PDF" fill="#FFFFFF" fill-rule="nonzero"></path>
            </g>
        </g>
    </g>
</svg>