<?xml version="1.0" encoding="UTF-8"?>
<svg width="64px" height="64px" viewBox="0 0 64 64" version="1.1" xmlns="http://www.w3.org/2000/svg" xmlns:xlink="http://www.w3.org/1999/xlink">
    <!-- Generator: Sketch 56.3 (81716) - https://sketch.com -->
    <title>php</title>
    <desc>Created with Sketch.</desc>
    <g id="php" stroke="none" stroke-width="1" fill="none" fill-rule="evenodd">
        <g id="Group" transform="translate(4.000000, 0.000000)">
            <g>
                <path d="M7.9205298,3.57298013 L7.9205298,60.3110993 C7.9205298,62.2696689 9.50845033,63.8567417 11.4661722,63.8567417 L52.2475232,63.8567417 C54.2060927,63.8567417 55.7931656,62.269457 55.7931656,60.3110993 L55.7931656,16.4492715 L38.6998675,0.0273377483 L11.4661722,0.0273377483 C9.50845033,0.0273377483 7.9205298,1.61462252 7.9205298,3.57298013 Z M37.6762177,2.57038411 L53.2501192,17.5325979 L53.2501192,60.3110993 C53.2501192,60.8650679 52.8015103,61.3136954 52.2475232,61.3136954 L11.4661722,61.3136954 C10.9125493,61.3136954 10.4635762,60.8647964 10.4635762,60.3110993 L10.4635762,3.57298013 C10.4635762,3.0193983 10.912646,2.57038411 11.4661722,2.57038411 L37.6762177,2.57038411 Z" id="Shape" fill="#8B4097" fill-rule="nonzero"></path>
                <path d="M55.7933775,16.4492715 L42.2457219,16.4492715 C40.2871523,16.4492715 38.7000795,14.8619868 38.7000795,12.9036291 L38.7000795,0.0275496689 L55.7933775,16.4492715 L55.7933775,16.4492715 Z" id="Shape" fill="#7B3A87"></path>
                <path d="M38.0543576,39.4803709 C38.0543576,41.7405033 36.2220927,43.5725563 33.9630199,43.5725563 L4.09133775,43.5725563 C1.8312053,43.5725563 0,41.7405033 0,39.4803709 L0,26.978755 C0,24.7186225 1.8312053,22.8874172 4.09133775,22.8874172 L33.9630199,22.8874172 C36.2223046,22.8874172 38.0543576,24.7186225 38.0543576,26.978755 L38.0543576,39.4803709 L38.0543576,39.4803709 Z" id="Shape" fill="#7B3A87"></path>
                <path d="M7.59629139,37.5651921 L7.59629139,29.5685828 C7.59629139,29.4477881 7.69292715,29.3390728 7.82580132,29.3390728 L10.6644768,29.3390728 C12.1502517,29.3390728 13.3702781,30.5470199 13.3702781,32.0086358 C13.3702781,33.5064901 12.1502517,34.7265166 10.6765563,34.7265166 L9.16662252,34.7265166 L9.16662252,37.5651921 C9.16662252,37.6859868 9.05790728,37.794702 8.93711258,37.794702 L7.82580132,37.794702 C7.69292715,37.794702 7.59629139,37.6859868 7.59629139,37.5651921 Z M9.16662252,33.2528212 L10.6161589,33.2528212 C11.2926093,33.2528212 11.8120265,32.709245 11.8120265,31.9965563 C11.8120265,31.3321854 11.2926093,30.8248477 10.6161589,30.8248477 L9.16662252,30.8248477 L9.16662252,33.2528212 Z M15.2409007,37.5651921 L15.2409007,29.5685828 C15.2409007,29.4477881 15.3496159,29.3390728 15.4704106,29.3390728 L16.5938013,29.3390728 C16.7266755,29.3390728 16.8233113,29.4477881 16.8233113,29.5685828 L16.8233113,32.7696424 L20.7612185,32.7696424 L20.7612185,29.5685828 C20.7612185,29.4477881 20.8578543,29.3390728 20.9907285,29.3390728 L22.1020397,29.3390728 C22.2228344,29.3390728 22.3315497,29.4477881 22.3315497,29.5685828 L22.3315497,37.5651921 C22.3315497,37.6859868 22.2228344,37.794702 22.1020397,37.794702 L20.9907285,37.794702 C20.8578543,37.794702 20.7612185,37.6859868 20.7612185,37.5651921 L20.7612185,34.2312583 L16.8233113,34.2312583 L16.8233113,37.5651921 C16.8233113,37.6859868 16.7266755,37.794702 16.5938013,37.794702 L15.4704106,37.794702 C15.3496159,37.794702 15.2409007,37.6859868 15.2409007,37.5651921 Z M24.9148609,37.5651921 L24.9148609,29.5685828 C24.9148609,29.4477881 25.0114967,29.3390728 25.1443709,29.3390728 L27.9830464,29.3390728 C29.4688212,29.3390728 30.6888477,30.5470199 30.6888477,32.0086358 C30.6888477,33.5064901 29.4688212,34.7265166 27.9951258,34.7265166 L26.4851921,34.7265166 L26.4851921,37.5651921 C26.4851921,37.6859868 26.3764768,37.794702 26.2556821,37.794702 L25.1443709,37.794702 C25.0114967,37.794702 24.9148609,37.6859868 24.9148609,37.5651921 Z M26.4851921,33.2528212 L27.9347285,33.2528212 C28.6111788,33.2528212 29.130596,32.709245 29.130596,31.9965563 C29.130596,31.3321854 28.6111788,30.8248477 27.9347285,30.8248477 L26.4851921,30.8248477 L26.4851921,33.2528212 Z" id="PHP" fill="#FFFFFF" fill-rule="nonzero"></path>
            </g>
        </g>
    </g>
</svg>