<?xml version="1.0" encoding="UTF-8"?>
<svg width="64px" height="64px" viewBox="0 0 64 64" version="1.1" xmlns="http://www.w3.org/2000/svg" xmlns:xlink="http://www.w3.org/1999/xlink">
    <!-- Generator: Sketch 56.3 (81716) - https://sketch.com -->
    <title>rar</title>
    <desc>Created with Sketch.</desc>
    <g id="rar" stroke="none" stroke-width="1" fill="none" fill-rule="evenodd">
        <g id="Group" transform="translate(4.000000, 0.000000)">
            <g>
                <path d="M7.9205298,3.57382781 L7.9205298,60.3115232 C7.9205298,62.2700927 9.50845033,63.8571656 11.4661722,63.8571656 L52.2475232,63.8571656 C54.2060927,63.8571656 55.7931656,62.2698808 55.7931656,60.3115232 L55.7931656,16.4492715 L38.6998675,0.0273377483 L11.4661722,0.0273377483 C9.50845033,0.0273377483 7.9205298,1.6154702 7.9205298,3.57382781 Z M37.6762177,2.57038411 L53.2501192,17.5325979 L53.2501192,60.3115232 C53.2501192,60.8654918 52.8015103,61.3141192 52.2475232,61.3141192 L11.4661722,61.3141192 C10.9125493,61.3141192 10.4635762,60.8652202 10.4635762,60.3115232 L10.4635762,3.57382781 C10.4635762,3.01989636 10.9129957,2.57038411 11.4661722,2.57038411 L37.6762177,2.57038411 Z" id="Shape" fill="#CDA54B" fill-rule="nonzero"></path>
                <path d="M55.7933775,16.4494834 L42.2457219,16.4494834 C40.2871523,16.4494834 38.7000795,14.861351 38.7000795,12.9029934 L38.7000795,0.0275496689 L55.7933775,16.4494834 L55.7933775,16.4494834 Z" id="Shape" fill="#AF8A3E"></path>
                <path d="M38.1456954,39.4805828 C38.1456954,41.7407152 36.3090327,43.5727682 34.0445376,43.5727682 L4.10115774,43.5727682 C1.83560054,43.5727682 0,41.7407152 0,39.4805828 L0,26.978755 C0,24.7186225 1.83560054,22.8874172 4.10115774,22.8874172 L34.0445376,22.8874172 C36.3092451,22.8874172 38.1456954,24.7188344 38.1456954,26.978755 L38.1456954,39.4805828 L38.1456954,39.4805828 Z" id="Shape" fill="#AF8A3E"></path>
                <path d="M7.38437086,37.5651921 L7.38437086,29.5685828 C7.38437086,29.4477881 7.48100662,29.3390728 7.61388079,29.3390728 L11.0686093,29.3390728 C12.5181457,29.3390728 13.7019338,30.498702 13.7019338,31.9361589 C13.7019338,33.0474702 12.9650861,33.9534305 11.9141722,34.3762119 L13.5690596,37.4443974 C13.6536159,37.6014305 13.5690596,37.794702 13.3637086,37.794702 L12.0953642,37.794702 C11.986649,37.794702 11.9262517,37.7343046 11.9020927,37.6859868 L10.2955232,34.4849272 L8.95470199,34.4849272 L8.95470199,37.5651921 C8.95470199,37.6859868 8.84598675,37.794702 8.72519205,37.794702 L7.61388079,37.794702 C7.48100662,37.794702 7.38437086,37.6859868 7.38437086,37.5651921 Z M8.96678146,33.1924238 L10.9357351,33.1924238 C11.575947,33.1924238 12.1316026,32.6367682 12.1316026,31.9603179 C12.1316026,31.320106 11.575947,30.7886093 10.9357351,30.7886093 L8.96678146,30.7886093 L8.96678146,33.1924238 Z M15.0893775,37.794702 C14.9081854,37.794702 14.8115497,37.6376689 14.8840265,37.4806358 L18.6407417,29.3511523 C18.6769801,29.2786755 18.7373775,29.2182781 18.8460927,29.2182781 L18.9668874,29.2182781 C19.0876821,29.2182781 19.136,29.2786755 19.1722384,29.3511523 L22.8927152,37.4806358 C22.9651921,37.6376689 22.8685563,37.794702 22.6873642,37.794702 L21.6364503,37.794702 C21.4552583,37.794702 21.370702,37.7222252 21.2861457,37.5531126 L20.6942517,36.2485298 L17.0824901,36.2485298 L16.490596,37.5531126 C16.4422781,37.6739073 16.3335629,37.794702 16.1402914,37.794702 L15.0893775,37.794702 Z M17.6743841,34.9077086 L20.1023576,34.9077086 L18.8944106,32.2502252 L18.8581722,32.2502252 L17.6743841,34.9077086 Z M24.4855099,37.5651921 L24.4855099,29.5685828 C24.4855099,29.4477881 24.5821457,29.3390728 24.7150199,29.3390728 L28.1697483,29.3390728 C29.6192848,29.3390728 30.8030728,30.498702 30.8030728,31.9361589 C30.8030728,33.0474702 30.0662252,33.9534305 29.0153113,34.3762119 L30.6701987,37.4443974 C30.754755,37.6014305 30.6701987,37.794702 30.4648477,37.794702 L29.1965033,37.794702 C29.0877881,37.794702 29.0273907,37.7343046 29.0032318,37.6859868 L27.3966623,34.4849272 L26.0558411,34.4849272 L26.0558411,37.5651921 C26.0558411,37.6859868 25.9471258,37.794702 25.8263311,37.794702 L24.7150199,37.794702 C24.5821457,37.794702 24.4855099,37.6859868 24.4855099,37.5651921 Z M26.0679205,33.1924238 L28.0368742,33.1924238 C28.6770861,33.1924238 29.2327417,32.6367682 29.2327417,31.9603179 C29.2327417,31.320106 28.6770861,30.7886093 28.0368742,30.7886093 L26.0679205,30.7886093 L26.0679205,33.1924238 Z" id="RAR" fill="#FFFFFF" fill-rule="nonzero"></path>
            </g>
        </g>
    </g>
</svg>