<?xml version="1.0" encoding="UTF-8"?>
<svg width="64px" height="64px" viewBox="0 0 64 64" version="1.1" xmlns="http://www.w3.org/2000/svg" xmlns:xlink="http://www.w3.org/1999/xlink">
    <!-- Generator: Sketch 56.3 (81716) - https://sketch.com -->
    <title>rtf</title>
    <desc>Created with Sketch.</desc>
    <g id="rtf" stroke="none" stroke-width="1" fill="none" fill-rule="evenodd">
        <g id="Group" transform="translate(4.000000, 0.000000)">
            <g>
                <path d="M7.9205298,3.57382781 L7.9205298,60.3115232 C7.9205298,62.2700927 9.50845033,63.8571656 11.4661722,63.8571656 L52.2475232,63.8571656 C54.2060927,63.8571656 55.7931656,62.2698808 55.7931656,60.3115232 L55.7931656,16.4492715 L38.6998675,0.0273377483 L11.4661722,0.0273377483 C9.50845033,0.0273377483 7.9205298,1.6154702 7.9205298,3.57382781 Z M37.6762177,2.57038411 L53.2501192,17.5325979 L53.2501192,60.3115232 C53.2501192,60.8654918 52.8015103,61.3141192 52.2475232,61.3141192 L11.4661722,61.3141192 C10.9125493,61.3141192 10.4635762,60.8652202 10.4635762,60.3115232 L10.4635762,3.57382781 C10.4635762,3.01989636 10.9129957,2.57038411 11.4661722,2.57038411 L37.6762177,2.57038411 Z" id="Shape" fill="#88A0D2" fill-rule="nonzero"></path>
                <path d="M55.7933775,16.4494834 L42.2457219,16.4494834 C40.2871523,16.4494834 38.7000795,14.861351 38.7000795,12.9029934 L38.7000795,0.0275496689 L55.7933775,16.4494834 L55.7933775,16.4494834 Z" id="Shape" fill="#6F8BC6"></path>
                <path d="M38.1456954,39.4805828 C38.1456954,41.7407152 36.3090327,43.5727682 34.0445376,43.5727682 L4.10115774,43.5727682 C1.83560054,43.5727682 0,41.7407152 0,39.4805828 L0,26.978755 C0,24.7186225 1.83560054,22.8874172 4.10115774,22.8874172 L34.0445376,22.8874172 C36.3092451,22.8874172 38.1456954,24.7188344 38.1456954,26.978755 L38.1456954,39.4805828 L38.1456954,39.4805828 Z" id="Shape" fill="#6F8BC6"></path>
                <text id="rtf" font-family="BrandonText-Bold, Brandon Text" font-size="12.0794702" font-weight="bold" letter-spacing="0.529801325" fill="#FFFFFF">
                    <tspan x="7.8410596" y="37.794702">RTF</tspan>
                </text>
            </g>
        </g>
    </g>
</svg>