<?xml version="1.0" encoding="UTF-8"?>
<svg width="64px" height="64px" viewBox="0 0 64 64" version="1.1" xmlns="http://www.w3.org/2000/svg" xmlns:xlink="http://www.w3.org/1999/xlink">
    <!-- Generator: Sketch 56.3 (81716) - https://sketch.com -->
    <title>torrent</title>
    <desc>Created with Sketch.</desc>
    <g id="torrent" stroke="none" stroke-width="1" fill="none" fill-rule="evenodd">
        <g id="Group" transform="translate(1.000000, 0.000000)">
            <g>
                <path d="M7.9205298,3.57382781 L7.9205298,60.3115232 C7.9205298,62.2700927 9.50845033,63.8571656 11.4661722,63.8571656 L52.2475232,63.8571656 C54.2060927,63.8571656 55.7931656,62.2698808 55.7931656,60.3115232 L55.7931656,16.4492715 L38.6998675,0.0273377483 L11.4661722,0.0273377483 C9.50845033,0.0273377483 7.9205298,1.6154702 7.9205298,3.57382781 Z M37.6762177,2.57038411 L53.2501192,17.5325979 L53.2501192,60.3115232 C53.2501192,60.8654918 52.8015103,61.3141192 52.2475232,61.3141192 L11.4661722,61.3141192 C10.9125493,61.3141192 10.4635762,60.8652202 10.4635762,60.3115232 L10.4635762,3.57382781 C10.4635762,3.01989636 10.9129957,2.57038411 11.4661722,2.57038411 L37.6762177,2.57038411 Z" id="Shape" fill="#A53460" fill-rule="nonzero"></path>
                <path d="M55.7933775,16.4494834 L42.2457219,16.4494834 C40.2871523,16.4494834 38.7000795,14.861351 38.7000795,12.9029934 L38.7000795,0.0275496689 L55.7933775,16.4494834 L55.7933775,16.4494834 Z" id="Shape" fill="#8E2852"></path>
                <path d="M62.3046358,39.4805828 C62.3046358,41.7407152 59.3047534,43.5727682 55.6060781,43.5727682 L6.69855765,43.5727682 C2.99814755,43.5727682 0,41.7407152 0,39.4805828 L0,26.978755 C0,24.7186225 2.99814755,22.8874172 6.69855765,22.8874172 L55.6060781,22.8874172 C59.3051003,22.8874172 62.3046358,24.7188344 62.3046358,26.978755 L62.3046358,39.4805828 L62.3046358,39.4805828 Z" id="Shape" fill="#8E2852"></path>
                <path d="M4.5109404,37.5651921 L4.5109404,30.7886093 L2.66278146,30.7886093 C2.52990728,30.7886093 2.43327152,30.679894 2.43327152,30.5590993 L2.43327152,29.5685828 C2.43327152,29.4477881 2.52990728,29.3390728 2.66278146,29.3390728 L7.94150993,29.3390728 C8.07438411,29.3390728 8.17101987,29.4477881 8.17101987,29.5685828 L8.17101987,30.5590993 C8.17101987,30.679894 8.07438411,30.7886093 7.94150993,30.7886093 L6.09335099,30.7886093 L6.09335099,37.5651921 C6.09335099,37.6859868 5.98463576,37.794702 5.86384106,37.794702 L4.74045033,37.794702 C4.61965563,37.794702 4.5109404,37.6859868 4.5109404,37.5651921 Z M9.32895364,33.5789669 C9.32895364,31.1630728 11.2495894,29.2182781 13.6654834,29.2182781 C16.0813775,29.2182781 18.0140927,31.1630728 18.0140927,33.5789669 C18.0140927,35.9948609 16.0813775,37.9154967 13.6654834,37.9154967 C11.2495894,37.9154967 9.32895364,35.9948609 9.32895364,33.5789669 Z M10.8992848,33.5789669 C10.8992848,35.1009801 12.1434702,36.3451656 13.6654834,36.3451656 C15.1874967,36.3451656 16.4437616,35.1009801 16.4437616,33.5789669 C16.4437616,32.0569536 15.1874967,30.7886093 13.6654834,30.7886093 C12.1434702,30.7886093 10.8992848,32.0569536 10.8992848,33.5789669 Z M20.1021457,37.5651921 L20.1021457,29.5685828 C20.1021457,29.4477881 20.1987815,29.3390728 20.3316556,29.3390728 L23.7863841,29.3390728 C25.2359205,29.3390728 26.4197086,30.498702 26.4197086,31.9361589 C26.4197086,33.0474702 25.6828609,33.9534305 24.631947,34.3762119 L26.2868344,37.4443974 C26.3713907,37.6014305 26.2868344,37.794702 26.0814834,37.794702 L24.8131391,37.794702 C24.7044238,37.794702 24.6440265,37.7343046 24.6198675,37.6859868 L23.013298,34.4849272 L21.6724768,34.4849272 L21.6724768,37.5651921 C21.6724768,37.6859868 21.5637616,37.794702 21.4429669,37.794702 L20.3316556,37.794702 C20.1987815,37.794702 20.1021457,37.6859868 20.1021457,37.5651921 Z M21.6845563,33.1924238 L23.6535099,33.1924238 C24.2937219,33.1924238 24.8493775,32.6367682 24.8493775,31.9603179 C24.8493775,31.320106 24.2937219,30.7886093 23.6535099,30.7886093 L21.6845563,30.7886093 L21.6845563,33.1924238 Z M28.6043974,37.5651921 L28.6043974,29.5685828 C28.6043974,29.4477881 28.7010331,29.3390728 28.8339073,29.3390728 L32.2886358,29.3390728 C33.7381722,29.3390728 34.9219603,30.498702 34.9219603,31.9361589 C34.9219603,33.0474702 34.1851126,33.9534305 33.1341987,34.3762119 L34.7890861,37.4443974 C34.8736424,37.6014305 34.7890861,37.794702 34.5837351,37.794702 L33.3153907,37.794702 C33.2066755,37.794702 33.1462781,37.7343046 33.1221192,37.6859868 L31.5155497,34.4849272 L30.1747285,34.4849272 L30.1747285,37.5651921 C30.1747285,37.6859868 30.0660132,37.794702 29.9452185,37.794702 L28.8339073,37.794702 C28.7010331,37.794702 28.6043974,37.6859868 28.6043974,37.5651921 Z M30.1868079,33.1924238 L32.1557616,33.1924238 C32.7959735,33.1924238 33.3516291,32.6367682 33.3516291,31.9603179 C33.3516291,31.320106 32.7959735,30.7886093 32.1557616,30.7886093 L30.1868079,30.7886093 L30.1868079,33.1924238 Z M37.106649,37.5651921 L37.106649,29.5685828 C37.106649,29.4477881 37.2032848,29.3390728 37.3361589,29.3390728 L42.2525033,29.3390728 C42.3853775,29.3390728 42.4820132,29.4477881 42.4820132,29.5685828 L42.4820132,30.5590993 C42.4820132,30.679894 42.3853775,30.7886093 42.2525033,30.7886093 L38.6769801,30.7886093 L38.6769801,32.7696424 L41.6606093,32.7696424 C41.781404,32.7696424 41.8901192,32.8783576 41.8901192,32.9991523 L41.8901192,34.0017483 C41.8901192,34.1346225 41.781404,34.2312583 41.6606093,34.2312583 L38.6769801,34.2312583 L38.6769801,36.3451656 L42.2525033,36.3451656 C42.3853775,36.3451656 42.4820132,36.4538808 42.4820132,36.5746755 L42.4820132,37.5651921 C42.4820132,37.6859868 42.3853775,37.794702 42.2525033,37.794702 L37.3361589,37.794702 C37.2032848,37.794702 37.106649,37.6859868 37.106649,37.5651921 Z M44.5942252,37.5651921 L44.5942252,29.4357086 C44.5942252,29.3149139 44.7029404,29.2182781 44.8237351,29.2182781 L45.0049272,29.2182781 C45.0894834,29.2182781 45.1498808,29.2424371 45.2102781,29.3028344 L50.138702,34.557404 L50.1628609,34.557404 L50.1628609,29.5685828 C50.1628609,29.4477881 50.2594967,29.3390728 50.3923709,29.3390728 L51.5036821,29.3390728 C51.6244768,29.3390728 51.7331921,29.4477881 51.7331921,29.5685828 L51.7331921,37.6980662 C51.7331921,37.8188609 51.6244768,37.9154967 51.5036821,37.9154967 L51.3345695,37.9154967 C51.2500132,37.9154967 51.1896159,37.8913377 51.1292185,37.8309404 L46.1766358,32.3710199 L46.1524768,32.3710199 L46.1524768,37.5651921 C46.1524768,37.6859868 46.0558411,37.794702 45.9229669,37.794702 L44.8237351,37.794702 C44.7029404,37.794702 44.5942252,37.6859868 44.5942252,37.5651921 Z M55.6814834,37.5651921 L55.6814834,30.7886093 L53.8333245,30.7886093 C53.7004503,30.7886093 53.6038146,30.679894 53.6038146,30.5590993 L53.6038146,29.5685828 C53.6038146,29.4477881 53.7004503,29.3390728 53.8333245,29.3390728 L59.112053,29.3390728 C59.2449272,29.3390728 59.3415629,29.4477881 59.3415629,29.5685828 L59.3415629,30.5590993 C59.3415629,30.679894 59.2449272,30.7886093 59.112053,30.7886093 L57.263894,30.7886093 L57.263894,37.5651921 C57.263894,37.6859868 57.1551788,37.794702 57.0343841,37.794702 L55.9109934,37.794702 C55.7901987,37.794702 55.6814834,37.6859868 55.6814834,37.5651921 Z" id="TORRENT" fill="#FFFFFF" fill-rule="nonzero"></path>
            </g>
        </g>
    </g>
</svg>