<?xml version="1.0" encoding="UTF-8"?>
<svg width="64px" height="64px" viewBox="0 0 64 64" version="1.1" xmlns="http://www.w3.org/2000/svg" xmlns:xlink="http://www.w3.org/1999/xlink">
    <!-- Generator: Sketch 56.3 (81716) - https://sketch.com -->
    <title>txt</title>
    <desc>Created with Sketch.</desc>
    <g id="txt" stroke="none" stroke-width="1" fill="none" fill-rule="evenodd">
        <g id="Group" transform="translate(4.000000, 0.000000)">
            <g>
                <path d="M7.9205298,3.57382781 L7.9205298,60.3115232 C7.9205298,62.2700927 9.50845033,63.8571656 11.4661722,63.8571656 L52.2475232,63.8571656 C54.2060927,63.8571656 55.7931656,62.2698808 55.7931656,60.3115232 L55.7931656,16.4492715 L38.6998675,0.0273377483 L11.4661722,0.0273377483 C9.50845033,0.0273377483 7.9205298,1.6154702 7.9205298,3.57382781 Z M37.6762177,2.57038411 L53.2501192,17.5325979 L53.2501192,60.3115232 C53.2501192,60.8654918 52.8015103,61.3141192 52.2475232,61.3141192 L11.4661722,61.3141192 C10.9125493,61.3141192 10.4635762,60.8652202 10.4635762,60.3115232 L10.4635762,3.57382781 C10.4635762,3.01989636 10.9129957,2.57038411 11.4661722,2.57038411 L37.6762177,2.57038411 Z" id="Shape" fill="#8F8376" fill-rule="nonzero"></path>
                <path d="M55.7933775,16.4494834 L42.2457219,16.4494834 C40.2871523,16.4494834 38.7000795,14.861351 38.7000795,12.9029934 L38.7000795,0.0275496689 L55.7933775,16.4494834 L55.7933775,16.4494834 Z" id="Shape" fill="#7A6F64"></path>
                <path d="M38.1456954,39.4805828 C38.1456954,41.7407152 36.3090327,43.5727682 34.0445376,43.5727682 L4.10115774,43.5727682 C1.83560054,43.5727682 0,41.7407152 0,39.4805828 L0,26.978755 C0,24.7186225 1.83560054,22.8874172 4.10115774,22.8874172 L34.0445376,22.8874172 C36.3092451,22.8874172 38.1456954,24.7188344 38.1456954,26.978755 L38.1456954,39.4805828 L38.1456954,39.4805828 Z" id="Shape" fill="#7A6F64"></path>
                <path d="M10.4447152,37.5651921 L10.4447152,30.7886093 L8.59655629,30.7886093 C8.46368212,30.7886093 8.36704636,30.679894 8.36704636,30.5590993 L8.36704636,29.5685828 C8.36704636,29.4477881 8.46368212,29.3390728 8.59655629,29.3390728 L13.8752848,29.3390728 C14.0081589,29.3390728 14.1047947,29.4477881 14.1047947,29.5685828 L14.1047947,30.5590993 C14.1047947,30.679894 14.0081589,30.7886093 13.8752848,30.7886093 L12.0271258,30.7886093 L12.0271258,37.5651921 C12.0271258,37.6859868 11.9184106,37.794702 11.7976159,37.794702 L10.6742252,37.794702 C10.5534305,37.794702 10.4447152,37.6859868 10.4447152,37.5651921 Z M15.250649,37.4564768 L17.7631788,33.4581722 L15.3472848,29.677298 C15.250649,29.5202649 15.3472848,29.3390728 15.5526358,29.3390728 L16.9538543,29.3390728 C17.0504901,29.3390728 17.1108874,29.3994702 17.1471258,29.4477881 L18.6691391,32.0086358 L18.717457,32.0086358 L20.2757086,29.4477881 C20.2998675,29.3994702 20.3723444,29.3390728 20.4689801,29.3390728 L21.8701987,29.3390728 C22.0755497,29.3390728 22.1721854,29.5202649 22.0755497,29.677298 L19.6475762,33.4581722 L22.160106,37.4564768 C22.2567417,37.6255894 22.160106,37.794702 21.954755,37.794702 L20.6501722,37.794702 C20.5535364,37.794702 20.4689801,37.7343046 20.4448212,37.6859868 L18.717457,34.9197881 L18.6691391,34.9197881 L16.9780132,37.6859868 C16.9417748,37.7343046 16.869298,37.794702 16.7726623,37.794702 L15.4680795,37.794702 C15.250649,37.794702 15.1540132,37.6135099 15.250649,37.4564768 Z M25.3836291,37.5651921 L25.3836291,30.7886093 L23.5354702,30.7886093 C23.402596,30.7886093 23.3059603,30.679894 23.3059603,30.5590993 L23.3059603,29.5685828 C23.3059603,29.4477881 23.402596,29.3390728 23.5354702,29.3390728 L28.8141987,29.3390728 C28.9470728,29.3390728 29.0437086,29.4477881 29.0437086,29.5685828 L29.0437086,30.5590993 C29.0437086,30.679894 28.9470728,30.7886093 28.8141987,30.7886093 L26.9660397,30.7886093 L26.9660397,37.5651921 C26.9660397,37.6859868 26.8573245,37.794702 26.7365298,37.794702 L25.6131391,37.794702 C25.4923444,37.794702 25.3836291,37.6859868 25.3836291,37.5651921 Z" id="TXT" fill="#FFFFFF" fill-rule="nonzero"></path>
            </g>
        </g>
    </g>
</svg>