<?xml version="1.0" encoding="UTF-8"?>
<svg width="64px" height="64px" viewBox="0 0 64 64" version="1.1" xmlns="http://www.w3.org/2000/svg" xmlns:xlink="http://www.w3.org/1999/xlink">
    <!-- Generator: Sketch 56.3 (81716) - https://sketch.com -->
    <title>wav</title>
    <desc>Created with Sketch.</desc>
    <g id="wav" stroke="none" stroke-width="1" fill="none" fill-rule="evenodd">
        <g id="Group" transform="translate(4.000000, 0.000000)">
            <g>
                <path d="M7.9205298,3.57382781 L7.9205298,60.3115232 C7.9205298,62.2700927 9.50845033,63.8571656 11.4661722,63.8571656 L52.2475232,63.8571656 C54.2060927,63.8571656 55.7931656,62.2698808 55.7931656,60.3115232 L55.7931656,16.4492715 L38.6998675,0.0273377483 L11.4661722,0.0273377483 C9.50845033,0.0273377483 7.9205298,1.6154702 7.9205298,3.57382781 Z M37.6762177,2.57038411 L53.2501192,17.5325979 L53.2501192,60.3115232 C53.2501192,60.8654918 52.8015103,61.3141192 52.2475232,61.3141192 L11.4661722,61.3141192 C10.9125493,61.3141192 10.4635762,60.8652202 10.4635762,60.3115232 L10.4635762,3.57382781 C10.4635762,3.01989636 10.9129957,2.57038411 11.4661722,2.57038411 L37.6762177,2.57038411 Z" id="Shape" fill="#5B4F3F" fill-rule="nonzero"></path>
                <path d="M55.7933775,16.4494834 L42.2457219,16.4494834 C40.2871523,16.4494834 38.7000795,14.861351 38.7000795,12.9029934 L38.7000795,0.0275496689 L55.7933775,16.4494834 L55.7933775,16.4494834 Z" id="Shape" fill="#6D6254"></path>
                <path d="M38.1456954,39.4805828 C38.1456954,41.7407152 36.3090327,43.5727682 34.0445376,43.5727682 L4.10115774,43.5727682 C1.83560054,43.5727682 0,41.7407152 0,39.4805828 L0,26.978755 C0,24.7186225 1.83560054,22.8874172 4.10115774,22.8874172 L34.0445376,22.8874172 C36.3092451,22.8874172 38.1456954,24.7188344 38.1456954,26.978755 L38.1456954,39.4805828 L38.1456954,39.4805828 Z" id="Shape" fill="#6D6254"></path>
                <path d="M8.05870199,37.7463841 L5.77568212,29.6289801 C5.72736424,29.4598675 5.824,29.3390728 5.99311258,29.3390728 L7.10442384,29.3390728 C7.2010596,29.3390728 7.29769536,29.4236291 7.3218543,29.5081854 L8.57811921,34.327894 L8.62643709,34.327894 L10.5470728,29.3511523 C10.5712318,29.2786755 10.6316291,29.2182781 10.7524238,29.2182781 L10.9698543,29.2182781 C11.090649,29.2182781 11.1510464,29.2786755 11.1752053,29.3511523 L13.1079205,34.327894 L13.1562384,34.327894 L14.3883444,29.5081854 C14.4125033,29.4236291 14.5091391,29.3390728 14.6057748,29.3390728 L15.7170861,29.3390728 C15.8861987,29.3390728 15.9828344,29.4598675 15.9345166,29.6289801 L13.6514967,37.7463841 C13.6273377,37.8430199 13.530702,37.9154967 13.4340662,37.9154967 L13.2407947,37.9154967 C13.1320795,37.9154967 13.0596026,37.8550993 13.0354437,37.7826225 L10.8732185,32.3106225 L10.8128212,32.3106225 L8.67475497,37.7826225 C8.63851656,37.8550993 8.59019868,37.9154967 8.46940397,37.9154967 L8.27613245,37.9154967 C8.17949669,37.9154967 8.08286093,37.8430199 8.05870199,37.7463841 Z M16.5367947,37.794702 C16.3556026,37.794702 16.2589669,37.6376689 16.3314437,37.4806358 L20.0881589,29.3511523 C20.1243974,29.2786755 20.1847947,29.2182781 20.2935099,29.2182781 L20.4143046,29.2182781 C20.5350993,29.2182781 20.5834172,29.2786755 20.6196556,29.3511523 L24.3401325,37.4806358 C24.4126093,37.6376689 24.3159735,37.794702 24.1347815,37.794702 L23.0838675,37.794702 C22.9026755,37.794702 22.8181192,37.7222252 22.7335629,37.5531126 L22.1416689,36.2485298 L18.5299073,36.2485298 L17.9380132,37.5531126 C17.8896954,37.6739073 17.7809801,37.794702 17.5877086,37.794702 L16.5367947,37.794702 Z M19.1218013,34.9077086 L21.5497748,34.9077086 L20.3418278,32.2502252 L20.3055894,32.2502252 L19.1218013,34.9077086 Z M27.9018808,37.7826225 L24.1693245,29.6531391 C24.0968477,29.496106 24.1934834,29.3390728 24.3746755,29.3390728 L25.6067815,29.3390728 C25.7154967,29.3390728 25.7879735,29.4115497 25.8121325,29.471947 L28.1434702,34.6661192 L28.2038675,34.6661192 L30.5352053,29.471947 C30.5593642,29.4115497 30.6318411,29.3390728 30.7405563,29.3390728 L31.9726623,29.3390728 C32.1538543,29.3390728 32.2504901,29.496106 32.1780132,29.6531391 L28.4333775,37.7826225 C28.3971391,37.8550993 28.3367417,37.9154967 28.2280265,37.9154967 L28.1072318,37.9154967 C27.9985166,37.9154967 27.9381192,37.8550993 27.9018808,37.7826225 Z" id="WAV" fill="#FFFFFF" fill-rule="nonzero"></path>
            </g>
        </g>
    </g>
</svg>