<?xml version="1.0" encoding="UTF-8"?>
<svg width="64px" height="64px" viewBox="0 0 64 64" version="1.1" xmlns="http://www.w3.org/2000/svg" xmlns:xlink="http://www.w3.org/1999/xlink">
    <!-- Generator: Sketch 56.3 (81716) - https://sketch.com -->
    <title>xls</title>
    <desc>Created with Sketch.</desc>
    <g id="xls" stroke="none" stroke-width="1" fill="none" fill-rule="evenodd">
        <g id="Group" transform="translate(4.000000, 0.000000)">
            <g>
                <path d="M7.92137748,3.57298013 L7.92137748,60.3125828 C7.92137748,62.2711523 9.50845033,63.8582252 11.4670199,63.8582252 L52.2475232,63.8582252 C54.2060927,63.8582252 55.7933775,62.2709404 55.7933775,60.3125828 L55.7933775,16.4503311 L38.6998675,0.0273377483 L11.4670199,0.0273377483 C9.50845033,0.0273377483 7.92137748,1.61462252 7.92137748,3.57298013 Z M37.6761888,2.57059603 L53.2503311,17.533628 L53.2503311,60.3125828 C53.2503311,60.8664639 52.8015977,61.3151788 52.2475232,61.3151788 L11.4670199,61.3151788 C10.9129361,61.3151788 10.4644238,60.8666666 10.4644238,60.3125828 L10.4644238,3.57298013 C10.4644238,3.02597404 10.901827,2.58167781 11.4461823,2.57059603 L37.6761888,2.57059603 Z" id="Shape" fill="#7D9D3E" fill-rule="nonzero"></path>
                <path d="M55.7933775,16.4503311 L42.2457219,16.4503311 C40.2871523,16.4503311 38.6998675,14.8621987 38.6998675,12.9038411 L38.6998675,0.0275496689 L55.7933775,16.4503311 L55.7933775,16.4503311 Z" id="Shape" fill="#718839"></path>
                <path d="M38.0537219,39.4814305 C38.0537219,41.7415629 36.221457,43.5736159 33.9630199,43.5736159 L4.09070199,43.5736159 C1.83056954,43.5736159 0,41.7415629 0,39.4814305 L0,26.9796026 C0,24.7194702 1.83056954,22.8874172 4.09070199,22.8874172 L33.9630199,22.8874172 C36.221457,22.8874172 38.0537219,24.7196821 38.0537219,26.9796026 L38.0537219,39.4814305 L38.0537219,39.4814305 Z" id="Shape" fill="#718839"></path>
                <path d="M8.35496689,37.4564768 L10.8674967,33.4581722 L8.45160265,29.677298 C8.35496689,29.5202649 8.45160265,29.3390728 8.65695364,29.3390728 L10.0581722,29.3390728 C10.1548079,29.3390728 10.2152053,29.3994702 10.2514437,29.4477881 L11.773457,32.0086358 L11.8217748,32.0086358 L13.3800265,29.4477881 C13.4041854,29.3994702 13.4766623,29.3390728 13.573298,29.3390728 L14.9745166,29.3390728 C15.1798675,29.3390728 15.2765033,29.5202649 15.1798675,29.677298 L12.751894,33.4581722 L15.2644238,37.4564768 C15.3610596,37.6255894 15.2644238,37.794702 15.0590728,37.794702 L13.7544901,37.794702 C13.6578543,37.794702 13.573298,37.7343046 13.5491391,37.6859868 L11.8217748,34.9197881 L11.773457,34.9197881 L10.0823311,37.6859868 C10.0460927,37.7343046 9.97361589,37.794702 9.87698013,37.794702 L8.57239735,37.794702 C8.35496689,37.794702 8.25833113,37.6135099 8.35496689,37.4564768 Z M17.1229669,37.5651921 L17.1229669,29.5685828 C17.1229669,29.4477881 17.2196026,29.3390728 17.3524768,29.3390728 L18.4637881,29.3390728 C18.5845828,29.3390728 18.693298,29.4477881 18.693298,29.5685828 L18.693298,36.3451656 L21.7735629,36.3451656 C21.9064371,36.3451656 22.0030728,36.4538808 22.0030728,36.5746755 L22.0030728,37.5651921 C22.0030728,37.6859868 21.9064371,37.794702 21.7735629,37.794702 L17.3524768,37.794702 C17.2196026,37.794702 17.1229669,37.6859868 17.1229669,37.5651921 Z M26.0600795,37.9154967 C24.5380662,37.9154967 23.7529007,37.2752848 23.402596,36.973298 C23.2818013,36.8766623 23.2334834,36.8041854 23.3421987,36.6109139 L23.7770596,35.8619868 C23.8736954,35.6928742 24.0790464,35.6928742 24.1877616,35.7774305 C24.6830199,36.151894 25.226596,36.5263576 26.0117616,36.5263576 C26.639894,36.5263576 27.1109934,36.1156556 27.1109934,35.5962384 C27.1109934,34.9801854 26.5915762,34.557404 25.5769007,34.146702 C24.4414305,33.6876821 23.3059603,32.9629139 23.3059603,31.5375364 C23.3059603,30.4624636 24.1032053,29.2182781 26.0238411,29.2182781 C27.255947,29.2182781 28.1981457,29.8464106 28.4397351,30.0276026 C28.5605298,30.1000795 28.5967682,30.3054305 28.5122119,30.4262252 L28.0531921,31.114755 C27.9565563,31.2597086 27.7753642,31.3563444 27.6304106,31.2597086 C27.1109934,30.9335629 26.6157351,30.5953377 25.9513642,30.5953377 C25.2628344,30.5953377 24.8883709,30.9818808 24.8883709,31.4409007 C24.8883709,32.0086358 25.3353113,32.3951788 26.3137483,32.7938013 C27.485457,33.2649007 28.8383576,33.9655099 28.8383576,35.5237616 C28.8383576,36.767947 27.7632848,37.9154967 26.0600795,37.9154967 Z" id="XLS" fill="#FFFFFF" fill-rule="nonzero"></path>
            </g>
        </g>
    </g>
</svg>