<?xml version="1.0" encoding="UTF-8"?>
<svg width="64px" height="64px" viewBox="0 0 64 64" version="1.1" xmlns="http://www.w3.org/2000/svg" xmlns:xlink="http://www.w3.org/1999/xlink">
    <!-- Generator: Sketch 56.3 (81716) - https://sketch.com -->
    <title>xlsx</title>
    <desc>Created with Sketch.</desc>
    <g id="xlsx" stroke="none" stroke-width="1" fill="none" fill-rule="evenodd">
        <g id="Group" transform="translate(4.000000, 0.000000)">
            <g>
                <path d="M7.92116556,3.57382781 L7.92116556,60.311947 C7.92116556,62.2703046 9.50845033,63.8575894 11.4670199,63.8575894 L52.2475232,63.8575894 C54.2060927,63.8575894 55.7931656,62.2703046 55.7931656,60.311947 L55.7931656,16.4503311 L38.6998675,0.0279735099 L11.4670199,0.0279735099 C9.50845033,0.0279735099 7.92116556,1.61525828 7.92116556,3.57382781 Z M37.6761987,2.57101987 L53.2501192,17.5336381 L53.2501192,60.311947 C53.2501192,60.8659156 52.8015103,61.314543 52.2475232,61.314543 L11.4670199,61.314543 C10.9129453,61.314543 10.4642119,60.8658282 10.4642119,60.311947 L10.4642119,3.57382781 C10.4642119,3.019744 10.9129361,2.57101987 11.4670199,2.57101987 L37.6761987,2.57101987 Z" id="Shape" fill="#9DCB3B" fill-rule="nonzero"></path>
                <path d="M55.7933775,16.4503311 L42.2457219,16.4503311 C40.2871523,16.4503311 38.7000795,14.8630464 38.7000795,12.9046887 L38.7000795,0.0279735099 L55.7933775,16.4503311 L55.7933775,16.4503311 Z" id="Shape" fill="#96B33D"></path>
                <path d="M38.053298,39.479947 C38.053298,41.7400795 36.2210331,43.5723444 33.9628079,43.5723444 L4.09049007,43.5723444 C1.83035762,43.5723444 0,41.7400795 0,39.479947 L0,26.9796026 C0,24.7194702 1.83035762,22.8874172 4.09049007,22.8874172 L33.9628079,22.8874172 C36.221245,22.8874172 38.053298,24.7194702 38.053298,26.9796026 L38.053298,39.479947 L38.053298,39.479947 Z" id="Shape" fill="#96B33D"></path>
                <path d="M4.32847682,37.4564768 L6.84100662,33.4581722 L4.42511258,29.677298 C4.32847682,29.5202649 4.42511258,29.3390728 4.63046358,29.3390728 L6.03168212,29.3390728 C6.12831788,29.3390728 6.18871523,29.3994702 6.22495364,29.4477881 L7.74696689,32.0086358 L7.79528477,32.0086358 L9.35353642,29.4477881 C9.37769536,29.3994702 9.45017219,29.3390728 9.54680795,29.3390728 L10.9480265,29.3390728 C11.1533775,29.3390728 11.2500132,29.5202649 11.1533775,29.677298 L8.72540397,33.4581722 L11.2379338,37.4564768 C11.3345695,37.6255894 11.2379338,37.794702 11.0325828,37.794702 L9.728,37.794702 C9.63136424,37.794702 9.54680795,37.7343046 9.52264901,37.6859868 L7.79528477,34.9197881 L7.74696689,34.9197881 L6.05584106,37.6859868 C6.01960265,37.7343046 5.94712583,37.794702 5.85049007,37.794702 L4.54590728,37.794702 C4.32847682,37.794702 4.23184106,37.6135099 4.32847682,37.4564768 Z M13.0964768,37.5651921 L13.0964768,29.5685828 C13.0964768,29.4477881 13.1931126,29.3390728 13.3259868,29.3390728 L14.437298,29.3390728 C14.5580927,29.3390728 14.6668079,29.4477881 14.6668079,29.5685828 L14.6668079,36.3451656 L17.7470728,36.3451656 C17.879947,36.3451656 17.9765828,36.4538808 17.9765828,36.5746755 L17.9765828,37.5651921 C17.9765828,37.6859868 17.879947,37.794702 17.7470728,37.794702 L13.3259868,37.794702 C13.1931126,37.794702 13.0964768,37.6859868 13.0964768,37.5651921 Z M22.0335894,37.9154967 C20.5115762,37.9154967 19.7264106,37.2752848 19.376106,36.973298 C19.2553113,36.8766623 19.2069934,36.8041854 19.3157086,36.6109139 L19.7505695,35.8619868 C19.8472053,35.6928742 20.0525563,35.6928742 20.1612715,35.7774305 C20.6565298,36.151894 21.200106,36.5263576 21.9852715,36.5263576 C22.613404,36.5263576 23.0845033,36.1156556 23.0845033,35.5962384 C23.0845033,34.9801854 22.5650861,34.557404 21.5504106,34.146702 C20.4149404,33.6876821 19.2794702,32.9629139 19.2794702,31.5375364 C19.2794702,30.4624636 20.0767152,29.2182781 21.997351,29.2182781 C23.229457,29.2182781 24.1716556,29.8464106 24.413245,30.0276026 C24.5340397,30.1000795 24.5702781,30.3054305 24.4857219,30.4262252 L24.026702,31.114755 C23.9300662,31.2597086 23.7488742,31.3563444 23.6039205,31.2597086 C23.0845033,30.9335629 22.589245,30.5953377 21.9248742,30.5953377 C21.2363444,30.5953377 20.8618808,30.9818808 20.8618808,31.4409007 C20.8618808,32.0086358 21.3088212,32.3951788 22.2872583,32.7938013 C23.4589669,33.2649007 24.8118675,33.9655099 24.8118675,35.5237616 C24.8118675,36.767947 23.7367947,37.9154967 22.0335894,37.9154967 Z M26.114755,37.4564768 L28.6272848,33.4581722 L26.2113907,29.677298 C26.114755,29.5202649 26.2113907,29.3390728 26.4167417,29.3390728 L27.8179603,29.3390728 C27.914596,29.3390728 27.9749934,29.3994702 28.0112318,29.4477881 L29.533245,32.0086358 L29.5815629,32.0086358 L31.1398146,29.4477881 C31.1639735,29.3994702 31.2364503,29.3390728 31.3330861,29.3390728 L32.7343046,29.3390728 C32.9396556,29.3390728 33.0362914,29.5202649 32.9396556,29.677298 L30.5116821,33.4581722 L33.0242119,37.4564768 C33.1208477,37.6255894 33.0242119,37.794702 32.8188609,37.794702 L31.5142781,37.794702 C31.4176424,37.794702 31.3330861,37.7343046 31.3089272,37.6859868 L29.5815629,34.9197881 L29.533245,34.9197881 L27.8421192,37.6859868 C27.8058808,37.7343046 27.733404,37.794702 27.6367682,37.794702 L26.3321854,37.794702 C26.114755,37.794702 26.0181192,37.6135099 26.114755,37.4564768 Z" id="XLSX" fill="#FFFFFF" fill-rule="nonzero"></path>
            </g>
        </g>
    </g>
</svg>