<?xml version="1.0" encoding="UTF-8"?>
<svg width="64px" height="64px" viewBox="0 0 64 64" version="1.1" xmlns="http://www.w3.org/2000/svg" xmlns:xlink="http://www.w3.org/1999/xlink">
    <!-- Generator: Sketch 56.3 (81716) - https://sketch.com -->
    <title>xml</title>
    <desc>Created with Sketch.</desc>
    <g id="xml" stroke="none" stroke-width="1" fill="none" fill-rule="evenodd">
        <g id="Group" transform="translate(4.000000, 0.000000)">
            <g>
                <path d="M7.9205298,3.57298013 L7.9205298,60.3110993 C7.9205298,62.2696689 9.50845033,63.8567417 11.4661722,63.8567417 L52.2475232,63.8567417 C54.2060927,63.8567417 55.7931656,62.269457 55.7931656,60.3110993 L55.7931656,16.4492715 L38.6998675,0.0273377483 L11.4661722,0.0273377483 C9.50845033,0.0273377483 7.9205298,1.61462252 7.9205298,3.57298013 Z M37.6762177,2.57038411 L53.2501192,17.5325979 L53.2501192,60.3110993 C53.2501192,60.8650679 52.8015103,61.3136954 52.2475232,61.3136954 L11.4661722,61.3136954 C10.9125493,61.3136954 10.4635762,60.8647964 10.4635762,60.3110993 L10.4635762,3.57298013 C10.4635762,3.0193983 10.912646,2.57038411 11.4661722,2.57038411 L37.6762177,2.57038411 Z" id="Shape" fill="#EF8A21" fill-rule="nonzero"></path>
                <path d="M55.7933775,16.4492715 L42.2457219,16.4492715 C40.2871523,16.4492715 38.7000795,14.8619868 38.7000795,12.9036291 L38.7000795,0.0275496689 L55.7933775,16.4492715 L55.7933775,16.4492715 Z" id="Shape" fill="#D57927"></path>
                <path d="M38.0541457,39.4803709 C38.0541457,41.7405033 36.2218808,43.5725563 33.9628079,43.5725563 L4.09133775,43.5725563 C1.8312053,43.5725563 0,41.7405033 0,39.4803709 L0,26.978755 C0,24.7186225 1.8312053,22.8874172 4.09133775,22.8874172 L33.9630199,22.8874172 C36.2223046,22.8874172 38.0543576,24.7186225 38.0543576,26.978755 L38.0543576,39.4803709 L38.0541457,39.4803709 Z" id="Shape" fill="#D57927"></path>
                <path d="M6.44768212,37.4564768 L8.96021192,33.4581722 L6.54431788,29.677298 C6.44768212,29.5202649 6.54431788,29.3390728 6.74966887,29.3390728 L8.15088742,29.3390728 C8.24752318,29.3390728 8.30792053,29.3994702 8.34415894,29.4477881 L9.86617219,32.0086358 L9.91449007,32.0086358 L11.4727417,29.4477881 C11.4969007,29.3994702 11.5693775,29.3390728 11.6660132,29.3390728 L13.0672318,29.3390728 C13.2725828,29.3390728 13.3692185,29.5202649 13.2725828,29.677298 L10.8446093,33.4581722 L13.3571391,37.4564768 C13.4537748,37.6255894 13.3571391,37.794702 13.1517881,37.794702 L11.8472053,37.794702 C11.7505695,37.794702 11.6660132,37.7343046 11.6418543,37.6859868 L9.91449007,34.9197881 L9.86617219,34.9197881 L8.17504636,37.6859868 C8.13880795,37.7343046 8.06633113,37.794702 7.96969536,37.794702 L6.66511258,37.794702 C6.44768212,37.794702 6.35104636,37.6135099 6.44768212,37.4564768 Z M14.7566623,37.5168742 L16.1941192,29.3994702 C16.2061987,29.3028344 16.2786755,29.2182781 16.4115497,29.2182781 L16.6048212,29.2182781 C16.701457,29.2182781 16.7739338,29.266596 16.8101722,29.3390728 L19.4676556,35.0405828 L19.503894,35.0405828 L22.1613775,29.3390728 C22.1976159,29.266596 22.2580132,29.2182781 22.3667285,29.2182781 L22.56,29.2182781 C22.6928742,29.2182781 22.765351,29.3028344 22.7774305,29.3994702 L24.2028079,37.5168742 C24.2390464,37.6859868 24.1424106,37.794702 23.9853775,37.794702 L22.8861457,37.794702 C22.7774305,37.794702 22.6807947,37.6980662 22.6566358,37.6135099 L21.943947,33.0353907 L21.9077086,33.0353907 L19.7938013,37.7826225 C19.7696424,37.8550993 19.6971656,37.9154967 19.5884503,37.9154967 L19.3710199,37.9154967 C19.2623046,37.9154967 19.2019073,37.8550993 19.1656689,37.7826225 L17.0276026,33.0353907 L16.9913642,33.0353907 L16.290755,37.6135099 C16.2786755,37.6980662 16.1820397,37.794702 16.0733245,37.794702 L14.9861722,37.794702 C14.8291391,37.794702 14.7325033,37.6859868 14.7566623,37.5168742 Z M26.3270993,37.5651921 L26.3270993,29.5685828 C26.3270993,29.4477881 26.4237351,29.3390728 26.5566093,29.3390728 L27.6679205,29.3390728 C27.7887152,29.3390728 27.8974305,29.4477881 27.8974305,29.5685828 L27.8974305,36.3451656 L30.9776954,36.3451656 C31.1105695,36.3451656 31.2072053,36.4538808 31.2072053,36.5746755 L31.2072053,37.5651921 C31.2072053,37.6859868 31.1105695,37.794702 30.9776954,37.794702 L26.5566093,37.794702 C26.4237351,37.794702 26.3270993,37.6859868 26.3270993,37.5651921 Z" id="XML" fill="#FFFFFF" fill-rule="nonzero"></path>
            </g>
        </g>
    </g>
</svg>