<?xml version="1.0" encoding="UTF-8"?>
<svg width="64px" height="64px" viewBox="0 0 64 64" version="1.1" xmlns="http://www.w3.org/2000/svg" xmlns:xlink="http://www.w3.org/1999/xlink">
    <!-- Generator: Sketch 56.3 (81716) - https://sketch.com -->
    <title>zip</title>
    <desc>Created with Sketch.</desc>
    <g id="zip" stroke="none" stroke-width="1" fill="none" fill-rule="evenodd">
        <g id="Group" transform="translate(4.000000, 0.000000)">
            <g>
                <path d="M7.9205298,3.57382781 L7.9205298,60.3115232 C7.9205298,62.2700927 9.50845033,63.8571656 11.4661722,63.8571656 L52.2475232,63.8571656 C54.2060927,63.8571656 55.7931656,62.2698808 55.7931656,60.3115232 L55.7931656,16.4492715 L38.6998675,0.0273377483 L11.4661722,0.0273377483 C9.50845033,0.0273377483 7.9205298,1.6154702 7.9205298,3.57382781 Z M37.6762177,2.57038411 L53.2501192,17.5325979 L53.2501192,60.3115232 C53.2501192,60.8654918 52.8015103,61.3141192 52.2475232,61.3141192 L11.4661722,61.3141192 C10.9125493,61.3141192 10.4635762,60.8652202 10.4635762,60.3115232 L10.4635762,3.57382781 C10.4635762,3.01989636 10.9129957,2.57038411 11.4661722,2.57038411 L37.6762177,2.57038411 Z" id="Shape" fill="#F7CE28" fill-rule="nonzero"></path>
                <path d="M55.7933775,16.4494834 L42.2457219,16.4494834 C40.2871523,16.4494834 38.7000795,14.861351 38.7000795,12.9029934 L38.7000795,0.0275496689 L55.7933775,16.4494834 L55.7933775,16.4494834 Z" id="Shape" fill="#DFBB26"></path>
                <path d="M38.1456954,39.4805828 C38.1456954,41.7407152 36.3090327,43.5727682 34.0445376,43.5727682 L4.10115774,43.5727682 C1.83560054,43.5727682 0,41.7407152 0,39.4805828 L0,26.978755 C0,24.7186225 1.83560054,22.8874172 4.10115774,22.8874172 L34.0445376,22.8874172 C36.3092451,22.8874172 38.1456954,24.7188344 38.1456954,26.978755 L38.1456954,39.4805828 L38.1456954,39.4805828 Z" id="Shape" fill="#DFBB26"></path>
                <path d="M12.3575099,36.3089272 L12.3575099,36.3330861 L15.4377748,36.3330861 C15.570649,36.3330861 15.6672848,36.4418013 15.6672848,36.562596 L15.6672848,37.5651921 C15.6672848,37.6859868 15.570649,37.794702 15.4377748,37.794702 L10.2798411,37.794702 C10.1590464,37.794702 10.0503311,37.6859868 10.0503311,37.5651921 C10.0503311,37.4323179 10.0503311,37.3477616 10.1348874,37.1907285 L13.6500132,30.8490066 L13.6500132,30.8006887 L10.6301457,30.8006887 C10.509351,30.8006887 10.4006358,30.6919735 10.4006358,30.5711788 L10.4006358,29.5685828 C10.4006358,29.4477881 10.509351,29.3390728 10.6301457,29.3390728 L15.6793642,29.3390728 C15.8001589,29.3390728 15.9088742,29.4477881 15.9088742,29.5685828 C15.9088742,29.6410596 15.9088742,29.7256159 15.8001589,29.9188874 L12.3575099,36.3089272 Z M17.8036556,37.5651921 L17.8036556,29.5685828 C17.8036556,29.4477881 17.9123709,29.3390728 18.0331656,29.3390728 L19.1565563,29.3390728 C19.277351,29.3390728 19.3860662,29.4477881 19.3860662,29.5685828 L19.3860662,37.5651921 C19.3860662,37.6859868 19.277351,37.794702 19.1565563,37.794702 L18.0331656,37.794702 C17.9123709,37.794702 17.8036556,37.6859868 17.8036556,37.5651921 Z M21.9693775,37.5651921 L21.9693775,29.5685828 C21.9693775,29.4477881 22.0660132,29.3390728 22.1988874,29.3390728 L25.0375629,29.3390728 C26.5233377,29.3390728 27.7433642,30.5470199 27.7433642,32.0086358 C27.7433642,33.5064901 26.5233377,34.7265166 25.0496424,34.7265166 L23.5397086,34.7265166 L23.5397086,37.5651921 C23.5397086,37.6859868 23.4309934,37.794702 23.3101987,37.794702 L22.1988874,37.794702 C22.0660132,37.794702 21.9693775,37.6859868 21.9693775,37.5651921 Z M23.5397086,33.2528212 L24.989245,33.2528212 C25.6656954,33.2528212 26.1851126,32.709245 26.1851126,31.9965563 C26.1851126,31.3321854 25.6656954,30.8248477 24.989245,30.8248477 L23.5397086,30.8248477 L23.5397086,33.2528212 Z" id="ZIP" fill="#FFFFFF" fill-rule="nonzero"></path>
            </g>
        </g>
    </g>
</svg>